<svg width="130" height="26" viewBox="0 0 130 26" fill="none" xmlns="http://www.w3.org/2000/svg">
<g clip-path="url(#clip0_68402_644)">
<path d="M12 12.816C13.355 12.816 14.872 12.666 15.84 11.56C16.654 10.63 16.918 9.19201 16.646 7.16801C16.266 4.34301 14.529 2.65601 12 2.65601C9.47103 2.65601 7.73403 4.34301 7.35403 7.17001C7.08203 9.19201 7.34603 10.63 8.16003 11.56C9.12803 12.667 10.645 12.816 12 12.816ZM8.84003 7.36801C9.00203 6.16801 9.62703 4.15601 12 4.15601C14.373 4.15601 14.998 6.16901 15.16 7.36801C15.367 8.91801 15.217 9.99501 14.71 10.573C14.255 11.093 13.444 11.316 12 11.316C10.556 11.316 9.74503 11.093 9.29003 10.573C8.78303 9.99501 8.63303 8.91701 8.84003 7.36801ZM20.28 20.236C19.403 16.71 15.998 14.246 12 14.246C8.00203 14.246 4.59703 16.71 3.72003 20.236C3.54803 20.928 3.69203 21.636 4.11503 22.176C4.52303 22.696 5.15503 22.996 5.84803 22.996H18.152C18.845 22.996 19.477 22.696 19.885 22.176C20.309 21.636 20.452 20.929 20.279 20.236H20.28ZM18.704 21.252C18.578 21.412 18.388 21.498 18.152 21.498H5.84803C5.61303 21.498 5.42203 21.413 5.29603 21.252C5.15903 21.078 5.11603 20.84 5.17603 20.598C5.88603 17.743 8.69303 15.748 12 15.748C15.307 15.748 18.114 17.742 18.824 20.598C18.884 20.84 18.841 21.078 18.704 21.252Z" fill="#44444F"/>
<path d="M45.958 7.482V9.444H57.442V7.482H45.958ZM48.316 12.468H54.886V14.25H48.316V12.468ZM46.354 10.704V16.014H56.956V10.704H46.354ZM48.046 16.194L46.282 16.734C48.244 20.118 51.574 21.936 56.452 22.602C56.722 22.008 57.262 21.144 57.712 20.676C53.05 20.244 49.648 18.786 48.046 16.194ZM50.512 5.826V14.034C50.512 16.986 50.044 19.74 45.202 20.82C45.67 21.27 46.3 22.134 46.552 22.62C51.718 21.072 52.636 17.724 52.636 14.052V5.826H50.512ZM44.59 5.664C43.618 8.238 41.944 10.794 40.234 12.414C40.594 12.936 41.17 14.124 41.35 14.628C43.402 12.594 45.382 9.372 46.606 6.312L44.59 5.664ZM42.844 10.686V22.656H44.896V8.652L44.878 8.634L42.844 10.686ZM61.78 6.924V8.976H72.832V6.924H61.78ZM61.78 11.064V13.08H72.868V11.064H61.78ZM61.744 15.312V17.346H72.94V15.312H61.744ZM60.538 6.924V13.386C60.538 15.924 60.376 19.146 58.414 21.324C58.882 21.594 59.764 22.314 60.106 22.728C62.32 20.316 62.68 16.266 62.68 13.404V6.924H60.538ZM72.076 6.924V20.064C72.076 20.37 71.95 20.478 71.608 20.496C71.284 20.496 70.096 20.514 69.07 20.442C69.358 21 69.682 21.936 69.772 22.512C71.41 22.53 72.49 22.494 73.246 22.152C73.966 21.81 74.218 21.234 74.218 20.082V6.924H72.076ZM66.082 7.734V22.404H68.278V7.734H66.082ZM76.882 11.172V13.08H93.082V11.172H76.882ZM78.448 7.662V9.534H88.744V7.662H78.448ZM81.616 17.454V19.074H89.662V17.454H81.616ZM81.616 20.28V22.098H89.662V20.28H81.616ZM82.696 5.718V12.234H84.82V5.718H82.696ZM90.616 6.24C87.466 10.758 82.174 14.196 76.324 16.068C76.72 16.5 77.368 17.4 77.62 17.868C83.452 15.726 88.942 12.108 92.47 7.194L90.616 6.24ZM80.41 14.52V22.638H82.57V16.284H88.78V22.566H91.03V14.52H80.41ZM104.404 7.734V17.67H106.528V7.734H104.404ZM108.598 6.06V20.046C108.598 20.37 108.472 20.478 108.13 20.478C107.788 20.478 106.654 20.496 105.574 20.46C105.88 21.054 106.186 22.008 106.294 22.62C107.914 22.62 109.03 22.548 109.786 22.206C110.488 21.864 110.74 21.27 110.74 20.046V6.06H108.598ZM97.618 10.524V12.486H102.244V10.524H97.618ZM94.972 6.528V8.526H103.918V6.528H94.972ZM96.52 15.276C97.564 15.96 98.986 16.932 99.652 17.58L100.732 15.762C100.03 15.168 98.572 14.268 97.528 13.674L96.52 15.276ZM101.488 10.524V10.956C100.786 16.05 98.608 19.38 95.368 21.09C95.854 21.414 96.664 22.206 96.988 22.674C100.3 20.748 102.712 16.86 103.612 10.902L102.262 10.452L101.902 10.524H101.488ZM97.942 7.626C97.402 10.272 96.178 13.512 94.234 15.366C94.684 15.708 95.386 16.356 95.764 16.77C97.924 14.646 99.274 11.154 100.102 8.04L97.942 7.626ZM113.782 7.014V8.85H128.326V7.014H113.782ZM114.664 9.804V11.514H127.624V9.804H114.664ZM113.008 12.522V14.34H128.956V12.522H113.008ZM119.848 5.718V13.98H122.044V5.718H119.848ZM119.56 12.99C118.066 14.772 115.096 16.482 112.36 17.328C112.828 17.76 113.458 18.552 113.782 19.074C116.608 18.03 119.614 16.068 121.432 13.836L119.56 12.99ZM122.584 13.62L120.64 14.106C122.008 18.084 124.276 20.874 128.164 22.206C128.47 21.612 129.1 20.748 129.586 20.298C125.968 19.29 123.682 16.86 122.584 13.62ZM126.94 14.682C126.004 15.6 124.42 16.752 123.25 17.454L124.618 18.588C125.842 17.976 127.408 16.986 128.74 16.014L126.94 14.682ZM116.23 22.62C116.752 22.278 117.598 22.008 122.746 20.478C122.62 20.01 122.44 19.146 122.386 18.552L116.896 20.064L115.996 20.766L116.23 22.62ZM116.23 22.62C116.23 21.918 118.48 20.748 118.48 20.748V16.068H116.23V19.254C116.23 20.046 115.726 20.478 115.33 20.694C115.672 21.144 116.086 22.098 116.23 22.62Z" fill="#44444F"/>
</g>
<defs>
<clipPath id="clip0_68402_644">
<rect width="130" height="26" fill="white"/>
</clipPath>
</defs>
</svg>
