
<svg width="112" height="26" viewBox="0 0 112 26" fill="none" xmlns="http://www.w3.org/2000/svg">
<g clip-path="url(#clip0_68402_637)">
<path d="M22.58 8.34998L12.475 2.89698C12.178 2.73698 11.821 2.73698 11.525 2.89698L1.42502 8.34998C0.939018 8.61398 0.758018 9.21998 1.02002 9.70598C1.20002 10.041 1.54502 10.231 1.90002 10.231C2.06002 10.231 2.22402 10.193 2.37502 10.111L3.10902 9.71498L4.69902 20.965C4.91502 22.179 6.00902 23.027 7.35902 23.027H16.641C17.991 23.027 19.085 22.179 19.303 20.939L20.891 9.71398L21.628 10.112C22.113 10.375 22.72 10.194 22.982 9.70798C23.245 9.22198 23.062 8.61498 22.578 8.35298L22.58 8.34998ZM12 16.435C10.205 16.435 8.75002 14.98 8.75002 13.185C8.75002 11.39 10.205 9.93498 12 9.93498C13.795 9.93498 15.25 11.39 15.25 13.185C15.25 14.98 13.795 16.435 12 16.435Z" fill="#FF6600"/>
<path d="M40.396 14.862L40.864 16.932C42.484 16.482 44.554 15.888 46.462 15.312L46.174 13.368C44.068 13.944 41.872 14.538 40.396 14.862ZM40.594 9.048V11.028H46.48V9.048H40.594ZM42.61 5.736V20.154C42.61 20.406 42.52 20.46 42.304 20.46C42.088 20.478 41.44 20.478 40.81 20.442C41.08 21.054 41.35 21.972 41.386 22.548C42.574 22.548 43.366 22.476 43.942 22.116C44.518 21.774 44.698 21.198 44.698 20.154V5.736H42.61ZM48.37 12.414V14.304H56.776V12.414H48.37ZM48.406 15.942V17.832H56.74V15.942H48.406ZM48.514 19.542V21.522H57.388V19.542H48.514ZM49.036 5.826C48.208 8.49 46.75 11.118 45.112 12.738C45.562 13.116 46.318 13.944 46.642 14.34C48.388 12.432 50.044 9.372 51.07 6.366L49.036 5.826ZM49.846 8.832H49.432L47.776 10.524V22.638H49.846V10.794H56.992V8.832H49.846ZM52.078 9.858V20.604H54.094V9.858H52.078ZM51.538 6.6C52.006 7.41 52.492 8.508 52.672 9.21L54.616 8.364C54.4 7.662 53.896 6.636 53.41 5.862L51.538 6.6ZM70.438 9.75C68.638 15.744 64.822 18.984 58.45 20.568C58.864 21.072 59.53 22.08 59.764 22.602C66.37 20.658 70.51 16.968 72.688 10.362L70.438 9.75ZM63.49 9.876L61.474 10.506C63.742 16.608 67.54 20.712 74.146 22.476C74.488 21.882 75.118 20.928 75.622 20.46C69.304 19.002 65.344 15.168 63.49 9.876ZM58.792 8.742V10.866H75.28V8.742H58.792ZM65.416 6.204C65.866 7.104 66.334 8.292 66.496 9.03L68.944 8.274C68.746 7.518 68.188 6.366 67.72 5.52L65.416 6.204ZM81.364 6.654V8.202H93.082V6.654H81.364ZM81.868 8.976V10.434H92.614V8.976H81.868ZM80.824 11.262V12.81H93.46V11.262H80.824ZM83.974 15.996V17.382H90.58V15.996H83.974ZM89.86 13.566V20.478C89.86 20.694 89.77 20.766 89.518 20.784C89.284 20.784 88.366 20.784 87.664 20.748C87.916 21.27 88.204 22.044 88.294 22.584C89.554 22.584 90.508 22.584 91.192 22.296C91.858 21.99 92.074 21.504 92.074 20.514V13.566H89.86ZM86.08 5.718V12.522H88.24V5.718H86.08ZM83.956 18.318V19.74H90.544V18.318H83.956ZM82.39 13.566V16.788C82.39 18.174 82.3 19.884 81.256 21.126C81.706 21.396 82.588 22.224 82.912 22.656C84.262 21.126 84.532 18.66 84.532 16.824V13.566H82.39ZM83.578 13.566V15.06H90.634V13.566H83.578ZM77.296 7.5C78.16 8.166 79.402 9.12 79.996 9.714L81.292 8.004C80.68 7.464 79.402 6.6 78.538 6.006L77.296 7.5ZM76.342 12.486C77.296 13.062 78.718 13.926 79.384 14.448L80.482 12.594C79.78 12.108 78.34 11.334 77.404 10.83L76.342 12.486ZM76.774 21.126L78.502 22.314C79.42 20.586 80.446 18.462 81.238 16.554L79.708 15.366C78.808 17.454 77.62 19.74 76.774 21.126ZM101.794 11.73V22.62H104.044V11.73H101.794ZM98.77 14.916H107.284V15.888H98.77V14.916ZM98.77 12.414H107.284V13.368H98.77V12.414ZM96.646 10.758V17.544H109.498V10.758H96.646ZM94.954 18.48V20.334H111.082V18.48H94.954ZM97.924 7.716H100.462V8.76H97.924V7.716ZM95.998 6.42V10.038H102.478V6.42H95.998ZM105.466 7.716H108.058V8.76H105.466V7.716ZM103.558 6.42V10.038H110.074V6.42H103.558Z" fill="#FF6600"/>
</g>
<defs>
<clipPath id="clip0_68402_637">
<rect width="112" height="26" fill="white"/>
</clipPath>
</defs>
</svg>

